<svg width="36" height="35" viewBox="0 0 36 35" fill="none" xmlns="http://www.w3.org/2000/svg">
<path d="M18.6077 33.7327C18.5114 33.6423 14.7125 30.0052 12.4579 24.7917H15.5393L15.0406 23.3333H11.8877C11.2489 21.5163 10.8231 19.5519 10.8231 17.5C10.8231 15.4481 11.2489 13.4852 11.8906 11.6667H24.3243C24.6816 12.6831 24.9777 13.7404 25.1629 14.84L26.7204 15.3723C26.5629 14.0831 26.2595 12.8479 25.8789 11.6667H33.0437C33.7539 13.4779 34.1579 15.4408 34.1579 17.5C34.1579 17.6385 34.1418 17.7727 34.1375 17.9098L35.5695 18.3998C35.5856 18.0994 35.6147 17.8033 35.6147 17.5C35.6147 7.85021 27.7645 0 18.1147 0C8.46495 0 0.614746 7.85021 0.614746 17.5C0.614746 27.1498 8.46495 35 18.1147 35C18.4195 35 18.7156 34.9694 19.016 34.9548L18.6135 33.7327H18.6062H18.6077ZM12.4608 10.2083C14.2531 6.06958 17.0035 2.93271 18.1147 1.7675C19.2245 2.93417 21.9662 6.07396 23.7527 10.2083H12.4608ZM32.386 10.2083H25.3539C23.8022 6.32188 21.4062 3.2375 19.9216 1.56771C25.367 2.18167 29.987 5.53292 32.386 10.2083ZM16.3064 1.56771C14.8204 3.23604 12.4214 6.3175 10.8654 10.2083H3.8435C6.24245 5.53292 10.861 2.18167 16.3064 1.56771ZM3.18725 11.6667H10.3404C9.7512 13.4867 9.36475 15.4423 9.36475 17.5C9.36475 19.5577 9.7512 21.5133 10.3404 23.3333H3.18725C2.47704 21.5221 2.07308 19.5592 2.07308 17.5C2.07308 15.4408 2.47704 13.4779 3.18725 11.6667ZM3.8435 24.7917H10.8639C12.42 28.684 14.8189 31.764 16.3064 33.4323C10.861 32.8183 6.24245 29.4671 3.8435 24.7917ZM22.1033 34.9694L25.79 25.1752L35.5841 21.4885L15.0931 14.4783L22.1033 34.9694ZM24.6583 24.045L22.1689 30.6571L17.4352 16.8219L31.2704 21.5542L24.6583 24.045Z" fill="white"/>
</svg>
