<svg width="61" height="75" viewBox="0 0 61 75" fill="none" xmlns="http://www.w3.org/2000/svg">
<path opacity="0.75" fill-rule="evenodd" clip-rule="evenodd" d="M30.5756 0L2.45251 15.1109L30.5756 30.222L58.6987 15.1109L30.5756 0Z" fill="white"/>
<path opacity="0.75" fill-rule="evenodd" clip-rule="evenodd" d="M28.7116 33.1977L0.614746 18.1033V59.9056L28.7116 74.9991V33.1977Z" fill="white"/>
<path opacity="0.75" fill-rule="evenodd" clip-rule="evenodd" d="M60.5365 18.1033L32.442 33.1977V75.0001L60.5365 59.9051V18.1033Z" fill="white"/>
<path d="M53.071 69.4642H8.08045C7.95019 69.4642 7.82523 69.4166 7.73305 69.3319C7.64087 69.2471 7.58901 69.1321 7.58887 69.0121V6.99062C7.58876 6.9312 7.60137 6.87235 7.62597 6.81742C7.65057 6.76249 7.68668 6.71257 7.73223 6.6705C7.77778 6.62843 7.83189 6.59504 7.89146 6.57224C7.95103 6.54943 8.01489 6.53766 8.0794 6.5376H53.0715C53.136 6.53766 53.1999 6.54943 53.2594 6.57224C53.319 6.59504 53.3731 6.62843 53.4187 6.6705C53.4642 6.71257 53.5003 6.76249 53.5249 6.81742C53.5495 6.87235 53.5622 6.9312 53.562 6.99062V69.0121C53.562 69.132 53.5102 69.247 53.4181 69.3318C53.326 69.4165 53.2012 69.4642 53.071 69.4642ZM8.57177 68.5593H52.5812V7.44243H8.57177V68.5593Z" fill="white"/>
</svg>
