<svg width="36" height="35" viewBox="0 0 36 35" fill="none" xmlns="http://www.w3.org/2000/svg">
<path d="M22.4897 6.5625C22.4897 6.16 22.8164 5.83333 23.2189 5.83333H28.3231V0.729167C28.3231 0.326667 28.6497 0 29.0522 0C29.4547 0 29.7814 0.326667 29.7814 0.729167V5.83333H34.8856C35.2881 5.83333 35.6147 6.16 35.6147 6.5625C35.6147 6.965 35.2881 7.29167 34.8856 7.29167H29.7814V12.3958C29.7814 12.7983 29.4547 13.125 29.0522 13.125C28.6497 13.125 28.3231 12.7983 28.3231 12.3958V7.29167H23.2189C22.8164 7.29167 22.4897 6.965 22.4897 6.5625ZM34.8856 10.2083C34.4831 10.2083 34.1564 10.535 34.1564 10.9375V28.4375C34.1564 31.2521 31.8668 33.5417 29.0522 33.5417H7.17725C4.36266 33.5417 2.07308 31.2521 2.07308 28.4375V11.4669L13.4743 22.8696C14.7533 24.1485 16.4347 24.7887 18.1162 24.7887C19.7977 24.7887 21.4747 24.15 22.7522 22.874L28.4062 17.29C28.692 17.0071 28.695 16.5448 28.412 16.2575C28.1277 15.9731 27.6668 15.9688 27.3795 16.2517L21.7227 21.8385C19.732 23.8277 16.4931 23.8277 14.5039 21.8385L2.25537 9.58708C2.84891 7.42583 4.83079 5.83333 7.17725 5.83333H18.8439C19.2464 5.83333 19.5731 5.50667 19.5731 5.10417C19.5731 4.70167 19.2464 4.375 18.8439 4.375H7.17725C3.55912 4.375 0.614746 7.31938 0.614746 10.9375V28.4375C0.614746 32.0556 3.55912 35 7.17725 35H29.0522C32.6704 35 35.6147 32.0556 35.6147 28.4375V10.9375C35.6147 10.535 35.2881 10.2083 34.8856 10.2083Z" fill="white"/>
</svg>
