<svg width="36" height="35" viewBox="0 0 36 35" fill="none" xmlns="http://www.w3.org/2000/svg">
<path d="M30.0731 14.5834H30.6929C33.4068 14.5834 35.6147 12.4572 35.6147 9.84384C35.6147 7.96988 34.8331 6.18634 33.4068 4.82426C26.6897 -1.59824 9.53975 -1.5997 2.82266 4.82426C1.39641 6.1878 0.614746 7.96988 0.614746 9.84384C0.614746 12.4572 2.82266 14.5834 5.53662 14.5834H6.15641L2.95975 19.9326C1.42558 22.5007 0.614746 25.4422 0.614746 28.4376C0.614746 32.0557 3.55912 35.0001 7.17725 35.0001H29.0522C32.6704 35.0001 35.6147 32.0557 35.6147 28.4376C35.6147 25.4422 34.8025 22.5022 33.2697 19.9326L30.0731 14.5834ZM2.07308 9.84384C2.07308 8.37238 2.69579 6.96363 3.83037 5.87863C9.97141 0.00446675 26.2581 0.00446675 32.3991 5.87863C33.5337 6.96363 34.1579 8.37092 34.1564 9.84384C34.1564 11.6536 32.6033 13.1251 30.6929 13.1251H29.1908L27.7762 10.8691C27.2206 9.98676 26.4287 9.29988 25.4852 8.88426C23.8372 8.15801 21.2225 7.29176 18.1147 7.29176C15.007 7.29176 12.3922 8.15801 10.7458 8.88426C9.80079 9.29988 9.00891 9.98676 8.45329 10.8691L7.0387 13.1251H5.53662C3.6262 13.1251 2.07308 11.6536 2.07308 9.84384ZM29.0522 33.5418H7.17725C4.36266 33.5418 2.07308 31.2522 2.07308 28.4376C2.07308 25.7061 2.81391 23.0243 4.21391 20.6807L8.06975 14.2276L9.68995 11.6449C10.0881 11.0091 10.6568 10.5176 11.335 10.2186C12.8531 9.54926 15.2622 8.75009 18.1147 8.75009C20.9672 8.75009 23.3764 9.5478 24.896 10.2186C25.5727 10.5176 26.1414 11.0091 26.5395 11.6449L28.1597 14.229L32.0156 20.6822C33.4156 23.0243 34.1564 25.7076 34.1564 28.439C34.1564 31.2536 31.8668 33.5418 29.0522 33.5418ZM18.1147 13.1251C13.2891 13.1251 9.36475 17.0495 9.36475 21.8751C9.36475 26.7007 13.2891 30.6251 18.1147 30.6251C22.9404 30.6251 26.8647 26.7007 26.8647 21.8751C26.8647 17.0495 22.9404 13.1251 18.1147 13.1251ZM18.1147 29.1668C14.0941 29.1668 10.8231 25.8957 10.8231 21.8751C10.8231 17.8545 14.0941 14.5834 18.1147 14.5834C22.1354 14.5834 25.4064 17.8545 25.4064 21.8751C25.4064 25.8957 22.1354 29.1668 18.1147 29.1668ZM18.1147 18.9584C16.5062 18.9584 15.1981 20.2666 15.1981 21.8751C15.1981 23.4836 16.5062 24.7918 18.1147 24.7918C19.7233 24.7918 21.0314 23.4836 21.0314 21.8751C21.0314 20.2666 19.7233 18.9584 18.1147 18.9584ZM18.1147 23.3334C17.3097 23.3334 16.6564 22.6786 16.6564 21.8751C16.6564 21.0716 17.3097 20.4168 18.1147 20.4168C18.9197 20.4168 19.5731 21.0716 19.5731 21.8751C19.5731 22.6786 18.9197 23.3334 18.1147 23.3334Z" fill="white"/>
</svg>
